<?xml version="1.0" encoding="utf-8"?>
<!-- Generator: Adobe Illustrator 22.1.0, SVG Export Plug-In . SVG Version: 6.00 Build 0)  -->
<svg version="1.1" id="Layer_1" xmlns="http://www.w3.org/2000/svg" xmlns:xlink="http://www.w3.org/1999/xlink" x="0px" y="0px"
	 viewBox="0 0 1075.9 408.9" style="enable-background:new 0 0 1075.9 408.9;" xml:space="preserve">
<style type="text/css">
	.st0{fill:none;stroke:#0F0F0F;stroke-width:20;stroke-miterlimit:10;}
	.st1{fill:#0F0F0F;}
</style>
<title>logoArtboard 1</title>
<circle class="st0" cx="204.4" cy="204.4" r="194.4"/>
<path class="st0" d="M295.6,115.3h-73.2c-49,0-89.1,40.1-89.1,89.1l0,0c0,49,40.1,89.1,89.1,89.1h73.2"/>
<circle class="st1" cx="223.7" cy="204.4" r="14.8"/>
<circle class="st1" cx="280.8" cy="204.4" r="14.8"/>
<g>
	<path d="M517.5,187.8h16.1c-2.8,6.8-7.8,12.5-14.1,16.2c-6.2,3.9-13.3,6-20.7,6c-10.4,0.2-20.4-4-27.5-11.6
		c-7.5-7.3-11.6-17.4-11.5-27.8c-0.1-10.3,4-20.2,11.4-27.4c7.6-7.6,16.6-11.5,27.1-11.5c7.6,0,15,2.1,21.4,6.2
		c6.4,3.9,11.4,9.7,14.2,16.6h-15.8c-2.3-2.9-5.3-5.2-8.7-6.8c-3.4-1.6-7.2-2.5-11-2.5c-6.6-0.1-13,2.7-17.5,7.6
		c-4.7,4.9-7.4,11.4-7.2,18.2c0,6.7,2.6,13.1,7.3,17.8c5,5.1,10.7,7.6,17.4,7.6c3.5,0,7-0.8,10.1-2.3
		C512,192.8,515,190.6,517.5,187.8z"/>
	<path d="M578,131.8c21.6,0.1,39.1,17.6,39.1,39.3c0,0,0,0,0,0c0,21.5-17.5,39-39,39c0,0,0,0,0,0c-10.4,0.1-20.3-4-27.6-11.4
		c-7.5-7.2-11.7-17.2-11.5-27.6C538.9,149.4,556.4,131.8,578,131.8C578,131.8,578,131.8,578,131.8z M578,145.3
		c-6.7-0.1-13.1,2.6-17.8,7.4c-4.8,4.7-7.4,11.2-7.3,18c-0.1,6.8,2.6,13.3,7.4,18.1c4.5,4.9,11,7.7,17.7,7.6
		c6.7,0,13.1-2.7,17.7-7.6c9.9-10,9.9-26.1,0.1-36.2C591.2,147.8,584.7,145.2,578,145.3z"/>
	<path d="M663.3,131.8c21.6,0.1,39.1,17.6,39.1,39.3c0,0,0,0,0,0c0,21.5-17.5,39-39,39c0,0,0,0,0,0c-10.4,0.1-20.3-4-27.6-11.4
		c-7.5-7.2-11.7-17.2-11.5-27.6c-0.2-10.5,4-20.5,11.5-27.8C642.9,135.8,652.9,131.6,663.3,131.8z M663.3,145.3
		c-6.7-0.1-13.1,2.6-17.8,7.4c-4.8,4.7-7.4,11.2-7.3,18c-0.1,6.8,2.6,13.3,7.4,18.1c4.5,4.9,11,7.7,17.7,7.6
		c6.7,0,13.1-2.7,17.7-7.6c9.9-10,9.9-26.1,0.1-36.2C676.5,147.8,670,145.2,663.3,145.3z"/>
	<path d="M713.3,208.3v-74.9h14v61.5h22.9v13.4H713.3z"/>
</g>
<polygon points="917.1,176.2 932.8,176.2 925,154.2 "/>
<path d="M784.7,121.1v102.2h291.2V121.1H784.7z M882.7,208.1h-13.4v-54.6l-18.8,54.6H839l-18.8-54.6v54.6h-13.5v-72.8h18.4
	l19.5,55.6l19.7-55.6h18.4V208.1z M946,208.1l-7.9-18.8h-25.7l-8.1,18.8h-14.9l30.3-72.8h10.5l30.6,72.8H946z M1002.6,148.4H989
	v59.6h-13.4v-59.6h-13.4v-13.1h40.5V148.4z M1048.6,148.4h-25.5v16.7h24.5v13.1h-24.5V195h25.5v13.1h-39.1v-72.8h39.1V148.4z"/>
<g>
	<path d="M469.2,288.8v-37.2h20.3v3.4h-16.6v13.4H489v3.4h-16.1v13.7h16.6v3.4L469.2,288.8z"/>
	<path d="M504.4,288.8l-11.6-27.5h4l9.5,22.8l9.5-22.8h4l-11.6,27.5H504.4z"/>
	<path d="M551.1,276.4h-24.9c0,2.6,1.2,5.1,3.3,6.7c1.9,1.8,4.4,2.8,7.1,2.8c2.1,0,4.1-0.6,5.9-1.6c1.8-1,3.2-2.6,4-4.5h3.9
		c-1,2.8-2.8,5.2-5.2,6.9c-2.4,1.8-5.2,2.7-8.2,2.8c-8,0-14.5-6.5-14.5-14.4c0-3.8,1.5-7.5,4.2-10.2c4.3-4.3,10.8-5.4,16.3-2.8
		c1.9,0.9,3.6,2.3,5,3.9c1.2,1.4,2.1,3.1,2.6,4.9C550.9,272.6,551.1,274.5,551.1,276.4z M526.1,273h21.2c-0.5-2.4-1.8-4.6-3.7-6.2
		c-1.9-1.6-4.3-2.5-6.8-2.5c-2.5,0-5,0.8-7,2.5C527.9,268.3,526.6,270.5,526.1,273L526.1,273z"/>
	<path d="M556.2,288.8v-27.5h3.5v4c0.6-1.5,1.8-2.8,3.3-3.5c1.5-0.7,3.1-1.1,4.7-1.1v3.7c-3.2,0.1-6.1,2.1-7.4,5.1
		c-0.3,1.3-0.5,2.6-0.4,3.9v15.4L556.2,288.8z"/>
	<path d="M590.7,261.3h4l-15.9,37.2h-3.9l4.4-10.5l-10.6-26.7h4l8.8,22L590.7,261.3z"/>
	<path d="M626.5,251.6v37.2H623v-5c-2.5,3.7-6.7,5.9-11.1,5.7c-2,0-4-0.4-5.8-1.3c-2.1-1.1-4.1-2.6-5.7-4.4c-0.9-1-1.6-2.1-2-3.4
		c-0.7-1.8-1-3.6-1-5.5c-0.1-3.9,1.5-7.6,4.3-10.2c2.8-2.7,6.6-4.2,10.5-4.1c2.1,0,4.2,0.5,6.1,1.4c1.9,0.9,3.5,2.3,4.6,4v-14.4
		H626.5z M622.8,274.9c0.1-2.9-1.1-5.6-3.2-7.6c-2.1-2-4.9-3.2-7.8-3.1c-2.9,0-5.6,1.1-7.6,3.1c-2.1,2-3.2,4.7-3.2,7.6
		c0,2.9,1.1,5.7,3.2,7.7c4.2,4.3,11.1,4.3,15.4,0c0,0,0,0,0,0C621.7,280.7,622.9,277.9,622.8,274.9z"/>
	<path d="M660.9,261.3v27.5h-3.6v-5.2c-1,1.9-2.6,3.4-4.5,4.4c-1.9,1-4,1.5-6.2,1.5c-2.2,0-4.3-0.5-6.3-1.4c-2.3-1-4.2-2.6-5.8-4.5
		c-0.8-1-1.4-2-1.7-3.2c-0.6-1.8-1-3.6-1-5.5c0-1.8,0.4-3.6,1.1-5.2c0.4-1.2,1-2.2,1.8-3.1c1.7-1.9,3.8-3.5,6.1-4.6
		c1.8-0.8,3.8-1.3,5.8-1.3c1.1,0,2.2,0.1,3.3,0.3c1,0.2,2,0.6,3,1.1c1.9,0.9,3.5,2.5,4.6,4.4v-5.2L660.9,261.3z M646.5,264.3
		c-2.9,0-5.7,1.1-7.8,3.2c-2.1,2-3.3,4.8-3.2,7.7c0,2.9,1.2,5.7,3.4,7.6c2.1,2,4.9,3.2,7.8,3.1c5.8-0.1,10.5-4.8,10.6-10.7
		c0.1-2.9-1.1-5.7-3.1-7.8C652.2,265.4,649.4,264.2,646.5,264.3z"/>
	<path d="M686.6,261.3h4l-15.9,37.2h-4l4.3-10.5l-10.6-26.7h4l8.8,22L686.6,261.3z"/>
	<path d="M708.8,288.8v-37.2h20.3v3.4h-16.6v13.4h16.1v3.4h-16.1v13.7h16.6v3.4L708.8,288.8z"/>
	<path d="M732.4,288.8l9.4-14l-9.4-13.6h4.4l7.3,10.6l7.3-10.6h4.4l-9.5,13.6l9.5,14h-4.4l-7.3-11l-7.3,11H732.4z"/>
	<path d="M782.6,280.8h4.1c-1.1,2.6-3,4.8-5.4,6.4c-2.4,1.6-5.2,2.4-8,2.3c-3.9,0.1-7.8-1.4-10.6-4.1c-5.7-5.3-5.9-14.3-0.6-19.9
		c0.2-0.2,0.4-0.4,0.6-0.6c2.8-2.7,6.6-4.2,10.5-4.2c2.9,0,5.8,0.8,8.3,2.4c2.5,1.5,4.3,3.8,5.3,6.5h-4.2c-2-3.3-5.5-5.3-9.4-5.4
		c-2.9-0.1-5.8,1-7.9,3.1c-2.1,2-3.3,4.8-3.3,7.7c-0.1,5.9,4.7,10.8,10.6,10.9c0.1,0,0.2,0,0.3,0c1.9,0,3.8-0.4,5.5-1.3
		C780.1,283.7,781.5,282.4,782.6,280.8z"/>
	<path d="M791.9,258v-6.3h3.7v6.3H791.9z M791.9,288.8v-27.5h3.7v27.5H791.9z"/>
	<path d="M805.2,288.8v-24.2h-5.8v-3.4h5.7v-9.7h3.7v9.7h6.4v3.4h-6.4v24.2H805.2z"/>
	<path d="M846.6,276.4h-24.9c0,2.6,1.2,5.1,3.3,6.7c1.9,1.8,4.5,2.8,7.1,2.8c2.1,0,4.1-0.6,5.9-1.6c1.8-1,3.2-2.6,4-4.5h3.9
		c-1,2.8-2.8,5.2-5.2,6.9c-2.4,1.8-5.2,2.7-8.2,2.8c-8,0.2-14.6-6-14.9-14c-0.2-8,6-14.6,14-14.9c0.3,0,0.5,0,0.8,0
		c2.1,0,4.2,0.5,6.1,1.4c1.9,0.9,3.6,2.3,5,3.9c1.2,1.4,2.1,3.1,2.6,4.9C846.5,272.6,846.7,274.5,846.6,276.4z M821.7,273h21.2
		c-0.5-2.4-1.8-4.6-3.7-6.2c-1.9-1.6-4.3-2.5-6.8-2.5c-2.5,0-5,0.8-7,2.5C823.5,268.3,822.2,270.5,821.7,273L821.7,273z"/>
	<path d="M851.8,288.8v-27.5h3.5v3.6c0.6-1.3,1.7-2.4,3-3.1c1.3-0.7,2.9-1.1,4.4-1.1c1.7,0,3.4,0.3,5,1c1.5,0.7,2.9,1.8,4,3.1
		l0.7,1.1l0.5-1.1c1-1.3,2.3-2.4,3.8-3.1c0.8-0.4,1.6-0.6,2.4-0.8c0.8-0.2,1.6-0.3,2.5-0.3c2.9,0,5.8,1.4,8.6,4.2
		c1,1,1.8,2.3,2.1,3.7c0.3,1.5,0.5,3,0.4,4.5v15.7h-3.7v-15.2c0-0.9,0-1.6-0.1-2.2c0-0.5-0.1-1-0.3-1.6c-0.2-0.8-0.5-1.6-1-2.2
		c-1.4-2.1-3.7-3.3-6.2-3.3c-1.2,0-2.4,0.3-3.4,0.8c-1.1,0.5-2,1.3-2.7,2.3c-0.6,0.9-0.9,1.9-1,2.9c-0.1,1.1-0.1,2.1-0.1,3.2v15.4
		h-3.7v-15.7c0-0.9,0-1.9-0.2-2.8c-0.2-1-0.6-1.9-1.1-2.7c-0.7-1-1.6-1.8-2.7-2.4c-1.1-0.6-2.3-0.9-3.5-0.9c-1.2,0-2.3,0.2-3.4,0.7
		c-1.1,0.5-2,1.2-2.7,2.2c-0.5,0.8-0.9,1.6-1,2.6c-0.2,1.1-0.3,2.2-0.3,3.4v15.8L851.8,288.8z"/>
	<path d="M926.6,276.4h-24.9c0,2.6,1.2,5.1,3.3,6.7c1.9,1.8,4.4,2.8,7.1,2.8c2.1,0,4.1-0.6,5.9-1.6c1.8-1,3.2-2.6,4-4.5h3.9
		c-1,2.8-2.8,5.2-5.3,6.9c-2.4,1.8-5.2,2.7-8.2,2.8c-8,0-14.5-6.5-14.5-14.5c0-3.8,1.5-7.5,4.2-10.2c4.3-4.3,10.8-5.4,16.3-2.8
		c1.9,0.9,3.6,2.3,5,3.9c1.2,1.4,2.1,3.1,2.6,4.9C926.4,272.7,926.6,274.5,926.6,276.4z M901.7,273h21.2c-0.5-2.4-1.8-4.6-3.7-6.2
		c-1.9-1.6-4.3-2.5-6.8-2.5c-2.5,0-5,0.8-7,2.5C903.4,268.3,902.1,270.5,901.7,273L901.7,273z"/>
	<path d="M931.7,288.8v-27.5h3.5v4c1-1.4,2.3-2.6,3.7-3.4c1.5-0.8,3.1-1.2,4.8-1.1c1.8,0,3.7,0.4,5.3,1.2c1.7,0.8,3.2,2,4.4,3.4
		c1,1.2,1.7,2.7,2,4.2c0.2,0.7,0.3,1.4,0.3,2.2c0.1,0.8,0.1,1.7,0.1,2.7v14.5h-3.7v-14.5c0-1.1-0.1-2.3-0.3-3.4
		c-0.2-1.1-0.7-2.2-1.4-3.1c-0.8-1.1-1.9-2-3.1-2.6c-1.3-0.6-2.6-0.9-4-0.9c-1.3,0-2.6,0.3-3.8,0.9c-1.2,0.6-2.2,1.4-2.9,2.5
		c-0.7,0.9-1.1,2-1.3,3.2c-0.1,0.4-0.1,0.9-0.1,1.4c0,0.5,0,1.2,0,2.1v14.5L931.7,288.8z"/>
	<path d="M965.6,288.8v-24.2h-5.7v-3.4h5.7v-9.7h3.7v9.7h6.4v3.4h-6.4v24.2H965.6z"/>
</g>
</svg>
